<svg width="599" height="276" viewBox="0 0 599 276" fill="none" xmlns="http://www.w3.org/2000/svg">
<path d="M86.15 248.204C85.989 259.816 77.969 275.908 45.62 275.908H41.371C7.848 275.908 0 255.406 0 241.647V238.878C0 224.935 7.756 204.986 41.371 204.986H45.62C77.323 204.986 85.744 219.651 86.139 231.858H63.098C62.087 228.722 58.274 222.253 43.496 222.253C27.242 222.253 22.994 231.58 22.994 239.523V240.723C22.994 248.204 27.334 258.454 43.587 258.454C59.183 258.454 62.5 251.169 63.253 248.204H86.15Z" fill="#D3A520"/>
<path d="M158.834 222.995H114.876V232.967H159.12V249.311H114.876V259.933H159.388V275.908H92.9907V207.203H158.834V222.995Z" fill="#D3A520"/>
<path d="M187.937 275.908H166.418V207.202H188.954L227.555 248.39V207.202H248.978V275.912H227.646L187.937 233.983V275.908Z" fill="#D3A520"/>
<path d="M255.576 224.564V207.202H337.582V224.564H307.569V275.912H285.592V224.564H255.576Z" fill="#D3A520"/>
<path d="M344.536 239.985V206.187H366.514V239.71C366.514 247.469 368.913 257.717 385.445 257.717H385.907C402.436 257.717 404.564 247.466 404.564 239.71V206.187H426.541V239.985C426.541 253.652 422.2 275.908 387.015 275.908H384.337C347.768 275.908 344.536 253.56 344.536 239.985Z" fill="#D3A520"/>
<path d="M454.979 238.227H479.451C486.377 238.227 488.778 235.366 488.778 231.025V230.75C488.778 226.685 486.377 223.732 479.451 223.732H454.979V238.227ZM497.505 252.372L511.682 275.912H485.918L473.129 254.671H454.979V275.912H432.907V207.202H481.296C504.939 207.202 511.678 216.713 511.678 230.197V231.304C511.678 240.88 508.097 248.684 497.505 252.372Z" fill="#D3A520"/>
<path d="M507.91 207.202H534.969L554.733 232.966L574.59 207.202H598.783L564.893 251.16V275.911H542.912V251.065L507.91 207.202Z" fill="#D3A520"/>
<mask id="mask0_75_67" style="mask-type:luminance" maskUnits="userSpaceOnUse" x="158" y="0" width="173" height="173">
<path d="M241.317 0.100006C220.217 0.300006 196.417 11.1 181.117 28.1C165.917 44.8 157.417 66.6 158.717 90.2C159.717 115.2 172.417 138.8 190.217 152.9C207.317 167.1 231.117 173.9 251.517 172.1C253.417 172 254.217 171.8 256.917 171.5C256.817 169.7 257.017 157.9 257.017 156.6C235.117 157.8 216.317 153.6 200.017 140.7C184.817 127.2 173.317 110.5 172.117 88.6C170.817 66.7 178.617 46.3 192.217 31.1C205.717 15.9 225.117 5.90001 247.017 4.70001C268.917 3.50001 288.917 11.5 304.117 25.1C321.317 39.7 327.717 62.2 329.817 73.3V73.4H330.017C326.717 53.6 317.617 35.8 302.617 22.3C287.317 8.70002 267.617 0 245.817 0C244.317 0 242.817 0.100006 241.317 0.100006Z" fill="white"/>
</mask>
<g mask="url(#mask0_75_67)">
<path d="M-712.549 -144.244L565.461 -880.566L1301.78 397.443L23.773 1133.77L-712.549 -144.244Z" fill="url(#paint0_linear_75_67)"/>
</g>
<mask id="mask1_75_67" style="mask-type:luminance" maskUnits="userSpaceOnUse" x="268" y="0" width="173" height="173">
<path d="M353.716 0.300293C351.116 0.300293 348.517 0.400287 346.017 0.700287C344.117 0.800287 343.317 1.00027 340.617 1.40027C340.717 3.10027 340.717 15.0003 340.817 16.3003C362.717 14.7003 381.517 18.7003 397.917 31.3003C413.317 44.7003 425.117 61.2003 426.617 83.1003C428.217 105 420.717 125.4 407.417 140.8C394.017 156.2 374.817 166.5 352.917 168C331.017 169.6 310.917 161.8 295.517 148.4C278.117 134 271.417 111.7 269.117 100.6V100.5H268.917C272.617 120.2 281.817 137.9 297.017 151.2C313.617 165.5 335.116 174.1 358.716 172.5C379.816 172.1 403.417 160.8 418.517 143.7C433.517 126.8 441.617 104.9 440.017 81.3003C438.617 56.2003 425.617 32.9003 407.617 19.0003C392.417 6.80027 372.216 0.300293 353.716 0.300293Z" fill="white"/>
</mask>
<g mask="url(#mask1_75_67)">
<path d="M1309.3 384.044L37.1726 1141.28L-720.065 -130.844L552.06 -888.082L1309.3 384.044Z" fill="url(#paint1_linear_75_67)"/>
</g>
<path d="M317.325 75.5642L318.873 75.3622L318.974 76.1362L317.426 76.3382L317.325 75.5642ZM293.756 30.2982L294.77 29.1112L294.772 29.1122L296.069 30.2552L297.329 31.4222L298.554 32.6142L299.742 33.8312L300.894 35.0702L302.01 36.3332L303.089 37.6182L304.134 38.9242L305.142 40.2522L306.116 41.6012L307.054 42.9692L307.956 44.3582L308.824 45.7652L309.657 47.1902L310.456 48.6342L311.219 50.0942L311.949 51.5722L312.644 53.0652L313.305 54.5742L313.932 56.0992L314.526 57.6372L315.086 59.1902L315.612 60.7562L316.105 62.3352L316.565 63.9262L316.992 65.5292L317.387 67.1432L317.748 68.7682L318.078 70.4032L318.375 72.0472L318.64 73.7002L318.873 75.3622L317.325 75.5642L317.096 73.9322L316.836 72.3092L316.545 70.6952L316.222 69.0922L315.867 67.4982L315.48 65.9152L315.062 64.3442L314.611 62.7842L314.127 61.2372L313.612 59.7032L313.063 58.1832L312.482 56.6762L311.868 55.1852L311.222 53.7082L310.541 52.2462L309.828 50.8012L309.081 49.3732L308.3 47.9622L307.486 46.5682L306.638 45.1932L305.756 43.8362L304.839 42.4992L303.888 41.1812L302.903 39.8842L301.882 38.6072L300.827 37.3522L299.737 36.1182L298.612 34.9072L297.451 33.7192L296.255 32.5542L295.023 31.4132L293.755 30.2972L293.756 30.2982ZM294.77 29.1112L294.772 29.1122L294.765 29.1062L294.77 29.1112ZM244.241 13.6182L244.199 12.0582L244.161 12.0602L245.966 11.9472L247.761 11.8822L249.545 11.8642L251.319 11.8932L253.082 11.9692L254.833 12.0902L256.571 12.2572L258.297 12.4672L260.01 12.7212L261.709 13.0182L263.395 13.3582L265.066 13.7392L266.722 14.1612L268.362 14.6242L269.987 15.1262L271.596 15.6682L273.188 16.2472L274.763 16.8652L276.32 17.5202L277.859 18.2112L279.38 18.9382L280.882 19.7002L282.365 20.4972L283.828 21.3272L285.271 22.1912L286.693 23.0872L288.094 24.0152L289.474 24.9742L290.832 25.9642L292.167 26.9842L293.48 28.0332L294.77 29.1112L293.756 30.2982L292.493 29.2422L291.206 28.2142L289.898 27.2152L288.568 26.2462L287.218 25.3072L285.846 24.3982L284.454 23.5212L283.042 22.6762L281.61 21.8632L280.159 21.0842L278.69 20.3382L277.203 19.6272L275.698 18.9512L274.175 18.3112L272.636 17.7072L271.08 17.1402L269.508 16.6122L267.92 16.1212L266.317 15.6692L264.699 15.2562L263.067 14.8842L261.421 14.5522L259.761 14.2622L258.088 14.0142L256.403 13.8082L254.705 13.6462L252.994 13.5272L251.273 13.4542L249.54 13.4252L247.797 13.4422L246.043 13.5062L244.279 13.6162L244.241 13.6182ZM244.279 13.6162L244.258 13.6182H244.241L244.279 13.6162ZM196.626 37.0282L195.451 36.0002L195.448 36.0032L196.617 34.6902L197.825 33.4062L199.071 32.1522L200.352 30.9292L201.668 29.7372L203.016 28.5772L204.395 27.4502L205.804 26.3572L207.24 25.2982L208.702 24.2742L210.189 23.2862L211.698 22.3342L213.229 21.4192L214.779 20.5422L216.348 19.7032L217.932 18.9042L219.532 18.1442L221.144 17.4262L222.768 16.7492L224.402 16.1142L226.044 15.5222L227.693 14.9732L229.347 14.4702L231.005 14.0112L232.664 13.5982L234.324 13.2322L235.982 12.9132L237.638 12.6432L239.289 12.4212L240.934 12.2492L242.571 12.1282L244.199 12.0582L244.241 13.6182L242.662 13.6862L241.073 13.8042L239.474 13.9712L237.868 14.1862L236.256 14.4502L234.64 14.7602L233.021 15.1172L231.402 15.5202L229.783 15.9682L228.167 16.4612L226.555 16.9972L224.95 17.5762L223.351 18.1972L221.762 18.8592L220.184 19.5622L218.618 20.3062L217.067 21.0882L215.532 21.9092L214.014 22.7682L212.515 23.6642L211.037 24.5962L209.582 25.5632L208.151 26.5652L206.745 27.6022L205.367 28.6712L204.019 29.7732L202.701 30.9072L201.415 32.0722L200.163 33.2662L198.947 34.4912L197.768 35.7442L196.629 37.0242L196.626 37.0282ZM196.629 37.0242L196.626 37.0282L196.631 37.0222L196.629 37.0242ZM179.785 87.0942L178.227 87.1912L178.228 87.2022L178.113 85.3972L178.046 83.6002L178.024 81.8112L178.047 80.0322L178.116 78.2622L178.229 76.5032L178.387 74.7542L178.588 73.0172L178.833 71.2912L179.12 69.5772L179.451 67.8762L179.823 66.1892L180.237 64.5152L180.692 62.8562L181.188 61.2112L181.725 59.5812L182.301 57.9682L182.918 56.3712L183.572 54.7902L184.266 53.2272L184.998 51.6812L185.768 50.1542L186.575 48.6462L187.42 47.1572L188.3 45.6882L189.217 44.2392L190.169 42.8112L191.157 41.4042L192.179 40.0192L193.236 38.6562L194.327 37.3172L195.451 36.0002L196.626 37.0282L195.526 38.3162L194.458 39.6282L193.424 40.9612L192.424 42.3162L191.457 43.6922L190.526 45.0892L189.629 46.5062L188.768 47.9432L187.943 49.3992L187.153 50.8742L186.401 52.3672L185.685 53.8772L185.007 55.4052L184.367 56.9502L183.765 58.5112L183.201 60.0882L182.677 61.6802L182.192 63.2882L181.747 64.9092L181.343 66.5452L180.979 68.1942L180.656 69.8552L180.375 71.5302L180.136 73.2162L179.939 74.9142L179.785 76.6232L179.675 78.3432L179.607 80.0732L179.584 81.8122L179.606 83.5612L179.672 85.3182L179.784 87.0832L179.785 87.0942ZM179.784 87.0832V87.0902L179.785 87.0942L179.784 87.0832ZM206.077 136.707L205.105 137.929L205.12 137.94L203.744 136.866L202.392 135.747L201.066 134.584L199.767 133.379L198.495 132.134L197.252 130.848L196.038 129.523L194.855 128.161L193.703 126.762L192.584 125.328L191.498 123.86L190.447 122.358L189.432 120.825L188.452 119.262L187.511 117.669L186.608 116.047L185.744 114.398L184.921 112.724L184.14 111.024L183.401 109.301L182.706 107.555L182.055 105.788L181.45 104L180.891 102.193L180.381 100.369L179.919 98.5272L179.506 96.6702L179.145 94.7992L178.835 92.9142L178.578 91.0172L178.375 89.1092L178.227 87.1912L179.785 87.0942L179.929 88.9662L180.128 90.8302L180.379 92.6832L180.681 94.5242L181.035 96.3532L181.438 98.1682L181.889 99.9682L182.389 101.752L182.935 103.519L183.527 105.268L184.163 106.996L184.843 108.705L185.566 110.391L186.331 112.053L187.136 113.692L187.981 115.305L188.865 116.892L189.786 118.451L190.744 119.98L191.737 121.48L192.765 122.948L193.827 124.383L194.921 125.785L196.047 127.153L197.203 128.484L198.388 129.778L199.602 131.033L200.844 132.25L202.111 133.425L203.404 134.559L204.722 135.65L206.062 136.696L206.077 136.707ZM206.062 136.696L206.068 136.701L206.077 136.707L206.062 136.696ZM255.564 150.999L255.607 152.56L254.028 152.59L252.437 152.596L250.832 152.576L249.216 152.529L247.591 152.455L245.956 152.355L244.315 152.225L242.669 152.067L241.018 151.88L239.364 151.663L237.709 151.414L236.054 151.134L234.4 150.823L232.749 150.478L231.102 150.1L229.46 149.688L227.826 149.242L226.2 148.76L224.584 148.242L222.978 147.687L221.386 147.095L219.807 146.465L218.244 145.796L216.697 145.088L215.169 144.34L213.661 143.552L212.174 142.722L210.709 141.85L209.269 140.935L207.853 139.978L206.465 138.976L205.105 137.929L206.077 136.707L207.398 137.724L208.748 138.698L210.124 139.63L211.527 140.52L212.953 141.37L214.403 142.179L215.874 142.948L217.365 143.678L218.876 144.369L220.403 145.022L221.947 145.639L223.505 146.218L225.076 146.761L226.66 147.268L228.253 147.74L229.856 148.179L231.466 148.583L233.083 148.954L234.704 149.292L236.329 149.598L237.955 149.873L239.582 150.117L241.208 150.331L242.831 150.515L244.451 150.671L246.066 150.798L247.674 150.897L249.274 150.969L250.864 151.015L252.444 151.035L254.011 151.029L255.564 150.999ZM255.607 152.56L255.564 150.999L256.344 150.978L256.387 152.538L255.607 152.56Z" fill="#F2C305"/>
<mask id="mask2_75_67" style="mask-type:luminance" maskUnits="userSpaceOnUse" x="278" y="21" width="140" height="141">
<path d="M337.717 22.4003C336.617 22.6003 337.417 22.4003 339.517 22.3003C346.517 21.7003 368.717 21.2003 385.517 33.8003C398.917 43.4003 408.817 57.8003 411.817 75.4003C414.717 92.9003 410.217 110 400.617 123.4C391.017 136.8 376.317 146.5 358.817 149.4C341.317 152.4 326.017 146.2 312.617 136.6C299.517 126.1 292.917 112 290.017 94.4003C288.917 94.7003 279.617 96.9003 278.217 97.2003C278.417 99.3003 278.417 100 278.717 101.5C280.917 118 290.417 135.5 304.817 146.6C319.017 158.1 339.917 164 359.917 160.3C378.817 157.1 394.517 146.6 405.017 131.6C415.717 116.4 420.017 95.7003 416.417 79.1003C413.217 60.2003 402.417 44.8003 387.917 34.5003C375.717 25.8003 361.617 21.8003 347.117 21.8003C344.017 21.8003 340.817 22.0003 337.717 22.4003Z" fill="white"/>
</mask>
<g mask="url(#mask2_75_67)">
<path d="M-551.594 571.387L-150.17 -719.61L1140.83 -318.187L739.403 972.81L-551.594 571.387Z" fill="url(#paint2_linear_75_67)"/>
</g>
<defs>
<linearGradient id="paint0_linear_75_67" x1="144.049" y1="143.801" x2="339.154" y2="31.3917" gradientUnits="userSpaceOnUse">
<stop stop-color="#EECC55"/>
<stop offset="1" stop-color="#D2A41E"/>
</linearGradient>
<linearGradient id="paint1_linear_75_67" x1="453.981" y1="27.6021" x2="260.495" y2="142.775" gradientUnits="userSpaceOnUse">
<stop stop-color="#EECC55"/>
<stop offset="1" stop-color="#D2A41E"/>
</linearGradient>
<linearGradient id="paint2_linear_75_67" x1="320.861" y1="181.648" x2="375.013" y2="7.49053" gradientUnits="userSpaceOnUse">
<stop stop-color="#EECC55"/>
<stop offset="1" stop-color="#D2A41E"/>
</linearGradient>
</defs>
</svg>
