<svg width="365" height="365" viewBox="0 0 365 365" fill="none" xmlns="http://www.w3.org/2000/svg">
<rect width="365" height="365" rx="182.5" fill="black"/>
<mask id="mask0_75_99" style="mask-type:luminance" maskUnits="userSpaceOnUse" x="42" y="96" width="172" height="173">
<path d="M124.73 96.1C103.63 96.3 79.8303 107.1 64.5303 124.1C49.3303 140.8 40.8303 162.6 42.1303 186.2C43.1303 211.2 55.8303 234.8 73.6303 248.9C90.7303 263.1 114.53 269.9 134.93 268.1C136.83 268 137.63 267.8 140.33 267.5C140.23 265.7 140.43 253.9 140.43 252.6C118.53 253.8 99.7302 249.6 83.4302 236.7C68.2302 223.2 56.7302 206.5 55.5302 184.6C54.2302 162.7 62.0303 142.3 75.6303 127.1C89.1303 111.9 108.53 101.9 130.43 100.7C152.33 99.5 172.33 107.5 187.53 121.1C204.73 135.7 211.13 158.2 213.23 169.3V169.4H213.43C210.13 149.6 201.03 131.8 186.03 118.3C170.73 104.7 151.03 96 129.23 96C127.73 96 126.23 96.1 124.73 96.1Z" fill="white"/>
</mask>
<g mask="url(#mask0_75_99)">
<path d="M-829.135 -48.2441L448.874 -784.566L1185.2 493.443L-92.8134 1229.77L-829.135 -48.2441Z" fill="url(#paint0_linear_75_99)"/>
</g>
<mask id="mask1_75_99" style="mask-type:luminance" maskUnits="userSpaceOnUse" x="152" y="96" width="172" height="173">
<path d="M237.13 96.3008C234.53 96.3008 231.93 96.4008 229.43 96.7008C227.53 96.8008 226.73 97.0008 224.03 97.4008C224.13 99.1008 224.13 111.001 224.23 112.301C246.13 110.701 264.93 114.701 281.33 127.301C296.73 140.701 308.53 157.201 310.03 179.101C311.63 201.001 304.13 221.401 290.83 236.801C277.43 252.201 258.23 262.501 236.33 264.001C214.43 265.601 194.33 257.801 178.93 244.401C161.53 230.001 154.83 207.701 152.53 196.601V196.501H152.33C156.03 216.201 165.23 233.901 180.43 247.201C197.03 261.501 218.53 270.101 242.13 268.501C263.23 268.101 286.83 256.801 301.93 239.701C316.93 222.801 325.03 200.901 323.43 177.301C322.03 152.201 309.03 128.901 291.03 115.001C275.83 102.801 255.63 96.3008 237.13 96.3008Z" fill="white"/>
</mask>
<g mask="url(#mask1_75_99)">
<path d="M1192.71 480.045L-79.4138 1237.28L-836.652 -34.8426L435.474 -792.081L1192.71 480.045Z" fill="url(#paint1_linear_75_99)"/>
</g>
<path d="M200.739 171.564L202.287 171.362L202.388 172.136L200.84 172.338L200.739 171.564ZM177.17 126.298L178.184 125.111L178.186 125.112L179.483 126.255L180.743 127.422L181.968 128.614L183.156 129.831L184.308 131.07L185.424 132.333L186.503 133.618L187.548 134.924L188.556 136.252L189.53 137.601L190.468 138.969L191.37 140.358L192.238 141.765L193.071 143.19L193.87 144.634L194.633 146.094L195.363 147.572L196.058 149.065L196.719 150.574L197.346 152.099L197.94 153.637L198.5 155.19L199.026 156.756L199.519 158.335L199.979 159.926L200.406 161.529L200.801 163.143L201.162 164.768L201.492 166.403L201.789 168.047L202.054 169.7L202.287 171.362L200.739 171.564L200.51 169.932L200.25 168.309L199.959 166.695L199.636 165.092L199.281 163.498L198.894 161.915L198.476 160.344L198.025 158.784L197.541 157.237L197.026 155.703L196.477 154.183L195.896 152.676L195.282 151.185L194.636 149.708L193.955 148.246L193.242 146.801L192.495 145.373L191.714 143.962L190.9 142.568L190.052 141.193L189.17 139.836L188.253 138.499L187.302 137.181L186.317 135.884L185.296 134.607L184.241 133.352L183.151 132.118L182.026 130.907L180.865 129.719L179.669 128.554L178.437 127.413L177.169 126.297L177.17 126.298ZM178.184 125.111L178.186 125.112L178.179 125.106L178.184 125.111ZM127.655 109.618L127.613 108.058L127.575 108.06L129.38 107.947L131.175 107.882L132.959 107.864L134.733 107.893L136.496 107.969L138.247 108.09L139.985 108.257L141.711 108.467L143.424 108.721L145.123 109.018L146.809 109.358L148.48 109.739L150.136 110.161L151.776 110.624L153.401 111.126L155.01 111.668L156.602 112.247L158.177 112.865L159.734 113.52L161.273 114.211L162.794 114.938L164.296 115.7L165.779 116.497L167.242 117.327L168.685 118.191L170.107 119.087L171.508 120.015L172.888 120.974L174.246 121.964L175.581 122.984L176.894 124.033L178.184 125.111L177.17 126.298L175.907 125.242L174.62 124.214L173.312 123.215L171.982 122.246L170.632 121.307L169.26 120.398L167.868 119.521L166.456 118.676L165.024 117.863L163.573 117.084L162.104 116.338L160.617 115.627L159.112 114.951L157.589 114.311L156.05 113.707L154.494 113.14L152.922 112.612L151.334 112.121L149.731 111.669L148.113 111.256L146.481 110.884L144.835 110.552L143.175 110.262L141.502 110.014L139.817 109.808L138.119 109.646L136.408 109.527L134.687 109.454L132.954 109.425L131.211 109.442L129.457 109.506L127.693 109.616L127.655 109.618ZM127.693 109.616L127.672 109.618H127.655L127.693 109.616ZM80.04 133.028L78.865 132L78.862 132.003L80.031 130.69L81.239 129.406L82.485 128.152L83.766 126.929L85.082 125.737L86.43 124.577L87.809 123.45L89.218 122.357L90.654 121.298L92.116 120.274L93.603 119.286L95.112 118.334L96.643 117.419L98.193 116.542L99.762 115.703L101.346 114.904L102.946 114.144L104.558 113.426L106.182 112.749L107.816 112.114L109.458 111.522L111.107 110.973L112.761 110.47L114.419 110.011L116.078 109.598L117.738 109.232L119.396 108.913L121.052 108.643L122.703 108.421L124.348 108.249L125.985 108.128L127.613 108.058L127.655 109.618L126.076 109.686L124.487 109.804L122.888 109.971L121.282 110.186L119.67 110.45L118.054 110.76L116.435 111.117L114.816 111.52L113.197 111.968L111.581 112.461L109.969 112.997L108.364 113.576L106.765 114.197L105.176 114.859L103.598 115.562L102.032 116.306L100.481 117.088L98.946 117.909L97.428 118.768L95.929 119.664L94.451 120.596L92.996 121.563L91.565 122.565L90.159 123.602L88.781 124.671L87.433 125.773L86.115 126.907L84.829 128.072L83.577 129.266L82.361 130.491L81.182 131.744L80.043 133.024L80.04 133.028ZM80.043 133.024L80.04 133.028L80.045 133.022L80.043 133.024ZM63.199 183.094L61.641 183.191L61.642 183.202L61.527 181.397L61.46 179.6L61.438 177.811L61.461 176.032L61.53 174.262L61.643 172.503L61.801 170.754L62.002 169.017L62.247 167.291L62.534 165.577L62.865 163.876L63.237 162.189L63.651 160.515L64.106 158.856L64.602 157.211L65.139 155.581L65.715 153.968L66.332 152.371L66.986 150.79L67.68 149.227L68.412 147.681L69.182 146.154L69.989 144.646L70.834 143.157L71.714 141.688L72.631 140.239L73.583 138.811L74.571 137.404L75.593 136.019L76.65 134.656L77.741 133.317L78.865 132L80.04 133.028L78.94 134.316L77.872 135.628L76.838 136.961L75.838 138.316L74.871 139.692L73.94 141.089L73.043 142.506L72.182 143.943L71.357 145.399L70.567 146.874L69.815 148.367L69.099 149.877L68.421 151.405L67.781 152.95L67.179 154.511L66.615 156.088L66.091 157.68L65.606 159.288L65.161 160.909L64.757 162.545L64.393 164.194L64.07 165.855L63.789 167.53L63.55 169.216L63.353 170.914L63.199 172.623L63.089 174.343L63.021 176.073L62.998 177.812L63.02 179.561L63.086 181.318L63.198 183.083L63.199 183.094ZM63.198 183.083V183.09L63.199 183.094L63.198 183.083ZM89.491 232.707L88.519 233.929L88.534 233.94L87.158 232.866L85.806 231.747L84.48 230.584L83.181 229.379L81.909 228.134L80.666 226.848L79.452 225.523L78.269 224.161L77.117 222.762L75.998 221.328L74.912 219.86L73.861 218.358L72.846 216.825L71.866 215.262L70.925 213.669L70.022 212.047L69.158 210.398L68.335 208.724L67.554 207.024L66.815 205.301L66.12 203.555L65.469 201.788L64.864 200L64.305 198.193L63.795 196.369L63.333 194.527L62.92 192.67L62.559 190.799L62.249 188.914L61.992 187.017L61.789 185.109L61.641 183.191L63.199 183.094L63.343 184.966L63.542 186.83L63.793 188.683L64.095 190.524L64.449 192.353L64.852 194.168L65.303 195.968L65.803 197.752L66.349 199.519L66.941 201.268L67.577 202.996L68.257 204.705L68.98 206.391L69.745 208.053L70.55 209.692L71.395 211.305L72.279 212.892L73.2 214.451L74.158 215.98L75.151 217.48L76.179 218.948L77.241 220.383L78.335 221.785L79.461 223.153L80.617 224.484L81.802 225.778L83.016 227.033L84.258 228.25L85.525 229.425L86.818 230.559L88.136 231.65L89.476 232.696L89.491 232.707ZM89.476 232.696L89.482 232.701L89.491 232.707L89.476 232.696ZM138.978 246.999L139.021 248.56L137.442 248.59L135.851 248.596L134.246 248.576L132.63 248.529L131.005 248.455L129.37 248.355L127.729 248.225L126.083 248.067L124.432 247.88L122.778 247.663L121.123 247.414L119.468 247.134L117.814 246.823L116.163 246.478L114.516 246.1L112.874 245.688L111.24 245.242L109.614 244.76L107.998 244.242L106.392 243.687L104.8 243.095L103.221 242.465L101.658 241.796L100.111 241.088L98.583 240.34L97.075 239.552L95.588 238.722L94.123 237.85L92.683 236.935L91.267 235.978L89.879 234.976L88.519 233.929L89.491 232.707L90.812 233.724L92.162 234.698L93.538 235.63L94.941 236.52L96.367 237.37L97.817 238.179L99.288 238.948L100.779 239.678L102.29 240.369L103.817 241.022L105.361 241.639L106.919 242.218L108.49 242.761L110.074 243.268L111.667 243.74L113.27 244.179L114.88 244.583L116.497 244.954L118.118 245.292L119.743 245.598L121.369 245.873L122.996 246.117L124.622 246.331L126.245 246.515L127.865 246.671L129.48 246.798L131.088 246.897L132.688 246.969L134.278 247.015L135.858 247.035L137.425 247.029L138.978 246.999ZM139.021 248.56L138.978 246.999L139.758 246.978L139.801 248.538L139.021 248.56Z" fill="#F2C305"/>
<mask id="mask2_75_99" style="mask-type:luminance" maskUnits="userSpaceOnUse" x="161" y="117" width="141" height="141">
<path d="M221.13 118.401C220.03 118.601 220.83 118.401 222.93 118.301C229.93 117.701 252.13 117.201 268.93 129.801C282.33 139.401 292.23 153.801 295.23 171.401C298.13 188.901 293.63 206.001 284.03 219.401C274.43 232.801 259.73 242.501 242.23 245.401C224.73 248.401 209.43 242.201 196.03 232.601C182.93 222.101 176.33 208.001 173.43 190.401C172.33 190.701 163.03 192.901 161.63 193.201C161.83 195.301 161.83 196.001 162.13 197.501C164.33 214.001 173.83 231.501 188.23 242.601C202.43 254.101 223.33 260.001 243.33 256.301C262.23 253.101 277.93 242.601 288.43 227.601C299.13 212.401 303.43 191.701 299.83 175.101C296.63 156.201 285.83 140.801 271.33 130.501C259.13 121.801 245.03 117.801 230.53 117.801C227.43 117.801 224.23 118.001 221.13 118.401Z" fill="white"/>
</mask>
<g mask="url(#mask2_75_99)">
<path d="M-668.18 667.388L-266.756 -623.609L1024.24 -222.186L622.817 1068.81L-668.18 667.388Z" fill="url(#paint2_linear_75_99)"/>
</g>
<defs>
<linearGradient id="paint0_linear_75_99" x1="27.4623" y1="239.801" x2="222.567" y2="127.392" gradientUnits="userSpaceOnUse">
<stop stop-color="#EECC55"/>
<stop offset="1" stop-color="#D2A41E"/>
</linearGradient>
<linearGradient id="paint1_linear_75_99" x1="337.394" y1="123.603" x2="143.909" y2="238.776" gradientUnits="userSpaceOnUse">
<stop stop-color="#EECC55"/>
<stop offset="1" stop-color="#D2A41E"/>
</linearGradient>
<linearGradient id="paint2_linear_75_99" x1="204.274" y1="277.649" x2="258.427" y2="103.492" gradientUnits="userSpaceOnUse">
<stop stop-color="#EECC55"/>
<stop offset="1" stop-color="#D2A41E"/>
</linearGradient>
</defs>
</svg>
